<?xml version="1.0" encoding="utf-8"?>
<!-- Generator: Adobe Illustrator 27.5.0, SVG Export Plug-In . SVG Version: 6.00 Build 0)  -->
<svg version="1.1" id="Layer_1" xmlns="http://www.w3.org/2000/svg" xmlns:xlink="http://www.w3.org/1999/xlink" x="0px" y="0px"
	 viewBox="0 0 4000 4000" style="enable-background:new 0 0 4000 4000;" xml:space="preserve">
<g>
	<rect x="16.529" y="16.529" style="fill-rule:evenodd;clip-rule:evenodd;fill:transparent;" width="3966.942" height="3966.942"/>
	<polygon style="fill-rule:evenodd;clip-rule:evenodd;" points="1322.292,1857.826 946.943,2139.368 1390.436,2285.865 
		1558.351,2054.198 1565.206,1843.034 	"/>
	<polygon style="fill-rule:evenodd;clip-rule:evenodd;" points="2677.703,1857.826 3053.052,2139.368 2609.559,2285.865 
		2441.645,2054.198 2434.791,1843.034 	"/>
	<polygon style="fill-rule:evenodd;clip-rule:evenodd;" points="1532.51,1536.733 1045.355,1370.234 1252.026,580.449 
		710.74,1540.58 1520.867,1960.837 1685.052,1876.107 	"/>
	<polygon style="fill-rule:evenodd;clip-rule:evenodd;" points="2467.485,1536.733 2954.64,1370.234 2747.969,580.449 
		3289.255,1540.58 2479.128,1960.837 2314.943,1876.107 	"/>
	<polygon style="fill-rule:evenodd;clip-rule:evenodd;" points="1999.998,1670.95 1532.51,1536.733 1569.427,1882.606 
		1633.386,2052.938 1923.725,2215.548 1999.998,2215.548 2076.27,2215.548 2366.609,2052.938 2430.567,1882.606 2467.485,1536.733 	
		"/>
	<polygon style="fill-rule:evenodd;clip-rule:evenodd;" points="1431.644,2104.571 1349.224,2467.161 1707.204,2804 
		1873.277,2740.744 1824.062,2410.417 1595.257,2322.627 1546.492,2152.343 1558.351,2054.198 	"/>
	<polygon style="fill-rule:evenodd;clip-rule:evenodd;" points="1999.998,3170.481 1774.86,3268.559 1999.998,3419.546 
		2225.135,3268.559 	"/>
	<polygon style="fill-rule:evenodd;clip-rule:evenodd;" points="2568.351,2104.571 2650.771,2467.161 2292.791,2804 
		2126.718,2740.744 2175.933,2410.417 2404.738,2322.627 2453.503,2152.343 2441.645,2054.198 	"/>
	<polygon style="fill-rule:evenodd;clip-rule:evenodd;" points="1923.725,2215.548 1569.427,1882.606 1431.644,2104.571 
		1859.755,2282.66 	"/>
	<polygon style="fill-rule:evenodd;clip-rule:evenodd;" points="2076.27,2215.548 2430.567,1882.606 2568.351,2104.571 
		2140.24,2282.66 	"/>
	<polygon style="fill-rule:evenodd;clip-rule:evenodd;" points="1999.998,2234.903 1824.062,2410.417 1730.574,2779.483 
		1888.041,2908.536 1999.998,2887.883 2111.954,2908.536 2269.42,2779.483 2175.933,2410.417 	"/>
	<polygon style="fill-rule:evenodd;clip-rule:evenodd;" points="1999.998,2828.52 1782.245,2733.022 1632.16,2874.981 
		1787.165,3084.04 1637.084,3104.695 1728.115,3225.999 1999.998,3117.592 2271.88,3225.999 2362.912,3104.695 2212.83,3084.04 
		2367.835,2874.981 2217.75,2733.022 	"/>
	<polygon style="opacity:0.3;fill-rule:evenodd;clip-rule:evenodd;" points="1787.165,3084.04 1637.084,3104.695 1728.115,3225.999 
		1999.998,3117.592 2271.88,3225.999 2362.912,3104.695 2212.83,3084.04 2367.835,2874.981 2155.43,3092.483 2180.032,3133.776 
		1999.998,3101.518 1819.963,3133.776 1844.566,3092.483 1632.16,2874.981 	"/>
	<rect style="fill:none;" width="4000" height="4000"/>
</g>
</svg>
